<svg id="overlay" xmlns="http://www.w3.org/2000/svg" viewBox="0 0 300 300"><defs><style>.cls-1{fill:#ee308a}</style></defs><circle cx="150" cy="150" r="149.57" style="fill:#fff100"/><path class="cls-1" d="m199.98 187.15-43.68 5.36-2.85-23.18 33.65-4.13-4.4-35.88-33.65 4.14-2.88-23.4 43.68-5.37-4.51-36.77-83.35 10.24 19.16 155.99 83.34-10.23-4.51-36.77zM48.72 243.05l-6.18-50.36 8.91-1.09 22.67 48.34 42.56-5.23-30.2-58.05c10.52-10.11 16.01-24.36 13.9-41.52l-.63-5.13c-3.67-29.86-26.74-48.29-60.17-44.19l-26.2 3.22C2.65 113.05-1.9 140.21 1.54 168.23c3.59 29.21 15.37 55.41 32.76 76.59l14.42-1.77Zm-4.61-120.46c8.25-1.01 15.11 3.35 16.32 13.15l.74 6.02c1.23 10.03-4.41 15.7-12.65 16.71l-10.03 1.23-4.41-35.88 10.03-1.23ZM298.46 131.77c-3.44-28.02-14.42-53.27-30.66-73.97l-45.47 5.58-14.72 160.16 39.44-4.84 1.93-30.32 31.64-3.89 7.39 23.22c9.72-23.2 13.73-49.17 10.44-75.93Zm-47.17 21.93 3.3-46.78 1.11-.14L270 151.4l-18.72 2.3Z"/></svg>